# xmcd
#
# Track frame offsets:
#	150
#	16920
#	30917
#	47685
#	61862
#	78297
#	91192
#	108450
#	122605
#	133942
#	149570
#	163267
#	180222
#	195715
#	214417
#
# Disc length: 3223 seconds
#
# Revision: 1
# Processed by: cddbd v1.5.1PL2 Copyright (c) Steve Scherf et al.
# Submitted via: audiograbber 1.83.01
#
DISCID=c80c950f
DTITLE=Razzy Bailey - Razzy Unwrapped
DYEAR=1997
DGENRE=Country
TTITLE0=he's Coming Unwrapped
TTITLE1=Unattended Fire
TTITLE2=Starting All Over Again
TTITLE3=My Heart is Fragile
TTITLE4=I Am the Blues
TTITLE5=She's Something
TTITLE6=This Eagle's Flying Home
TTITLE7=Things
TTITLE8=Blue Monday (w. Mickey Gilley)
TTITLE9=Long Black Veil (w. Johnny Cash)
TTITLE10=Midnight Hour
TTITLE11=Sandcastles
TTITLE12=Midnight Hauler
TTITLE13=Nightlife (w. Willie Nelson)
TTITLE14=If You've Got The Nerve (w Charlie Daniels, Sandra Bailey, Kenny Hatle
TTITLE14=y)
EXTD=
EXTT0=
EXTT1=
EXTT2=
EXTT3=
EXTT4=
EXTT5=
EXTT6=
EXTT7=
EXTT8=
EXTT9=
EXTT10=
EXTT11=
EXTT12=
EXTT13=
EXTT14=
PLAYORDER=
